HIERARCHY
ROOT pelvis
{
	OFFSET 0.003123 -0.351407 0.012037
	CHANNELS 6 Xposition Yposition Zposition Zrotation Yrotation Xrotation 
	JOINT left_hip
	{
		OFFSET 0.058189 -0.092763 -0.026001
		CHANNELS 3 Zrotation Yrotation Xrotation
		JOINT left_knee
		{
			OFFSET 0.054695 -0.378753 -0.009396
			CHANNELS 3 Zrotation Yrotation Xrotation
			JOINT left_ankle
			{
				OFFSET -0.043453 -0.403059 -0.031876
				CHANNELS 3 Zrotation Yrotation Xrotation
				JOINT left_foot
				{
					OFFSET 0.047257 -0.057997 0.118216
					CHANNELS 3 Zrotation Yrotation Xrotation
					End Site
					{
						OFFSET 0.000000 0.000000 0.000000
					}
				}
			}
		}
	}
	JOINT right_hip
	{
		OFFSET -0.063267 -0.103908 -0.021250
		CHANNELS 3 Zrotation Yrotation Xrotation
		JOINT right_knee
		{
			OFFSET -0.044210 -0.362380 -0.016824
			CHANNELS 3 Zrotation Yrotation Xrotation
			JOINT right_ankle
			{
				OFFSET 0.015417 -0.410728 -0.020192
				CHANNELS 3 Zrotation Yrotation Xrotation
				JOINT right_foot
				{
					OFFSET -0.038812 -0.058328 0.119049
					CHANNELS 3 Zrotation Yrotation Xrotation
					End Site
					{
						OFFSET 0.000000 0.000000 0.000000
					}
				}
			}
		}
	}
	JOINT spine_1
	{
		OFFSET -0.002763 0.109891 -0.027618
		CHANNELS 3 Zrotation Yrotation Xrotation
		JOINT spine_2
		{
			OFFSET 0.009448 0.131853 -0.005940
			CHANNELS 3 Zrotation Yrotation Xrotation
			JOINT spine_3
			{
				OFFSET -0.011330 0.052235 0.028447
				CHANNELS 3 Zrotation Yrotation Xrotation
				JOINT neck
				{
					OFFSET -0.012164 0.165167 -0.031615
					CHANNELS 3 Zrotation Yrotation Xrotation
					JOINT head
					{
						OFFSET 0.024783 0.160452 0.020737
						CHANNELS 3 Zrotation Yrotation Xrotation
						End Site
						{
							OFFSET 0.000000 0.000000 0.000000
						}
					}
				}
				JOINT left_collar
				{
					OFFSET 0.046364 0.084944 -0.007220
					CHANNELS 3 Zrotation Yrotation Xrotation
					JOINT left_shoulder
					{
						OFFSET 0.119239 0.057728 -0.015461
						CHANNELS 3 Zrotation Yrotation Xrotation
						JOINT left_elbow
						{
							OFFSET 0.254123 -0.072151 -0.042459
							CHANNELS 3 Zrotation Yrotation Xrotation
							JOINT left_wrist
							{
								OFFSET 0.251987 0.023221 -0.002472
								CHANNELS 3 Zrotation Yrotation Xrotation
								JOINT left_index_1
								{
									OFFSET 0.101902 -0.008688 0.019351
									CHANNELS 3 Zrotation Yrotation Xrotation
									JOINT left_index_2
									{
										OFFSET 0.030149 -0.011154 0.001151
										CHANNELS 3 Zrotation Yrotation Xrotation
										JOINT left_index_3
										{
											OFFSET 0.006504 -0.021577 -0.002433
											CHANNELS 3 Zrotation Yrotation Xrotation
											End Site
											{
												OFFSET 0.000000 0.000000 0.000000
											}
										}
									}
								}
								JOINT left_middle_1
								{
									OFFSET 0.109398 -0.006328 -0.003981
									CHANNELS 3 Zrotation Yrotation Xrotation
									JOINT left_middle_2
									{
										OFFSET 0.026472 -0.015218 -0.004641
										CHANNELS 3 Zrotation Yrotation Xrotation
										JOINT left_middle_3
										{
											OFFSET 0.005022 -0.023347 -0.001911
											CHANNELS 3 Zrotation Yrotation Xrotation
											End Site
											{
												OFFSET 0.000000 0.000000 0.000000
											}
										}
									}
								}
								JOINT left_pinky_1
								{
									OFFSET 0.084047 -0.014539 -0.043750
									CHANNELS 3 Zrotation Yrotation Xrotation
									JOINT left_pinky_2
									{
										OFFSET 0.012124 -0.014448 -0.005375
										CHANNELS 3 Zrotation Yrotation Xrotation
										JOINT left_pinky_3
										{
											OFFSET 0.003798 -0.018853 0.000167
											CHANNELS 3 Zrotation Yrotation Xrotation
											End Site
											{
												OFFSET 0.000000 0.000000 0.000000
											}
										}
									}
								}
								JOINT left_ring_1
								{
									OFFSET 0.097444 -0.009268 -0.027345
									CHANNELS 3 Zrotation Yrotation Xrotation
									JOINT left_ring_2
									{
										OFFSET 0.023561 -0.016057 -0.001895
										CHANNELS 3 Zrotation Yrotation Xrotation
										JOINT left_ring_3
										{
											OFFSET 0.004257 -0.023548 0.000814
											CHANNELS 3 Zrotation Yrotation Xrotation
											End Site
											{
												OFFSET 0.000000 0.000000 0.000000
											}
										}
									}
								}
								JOINT left_thumb_1
								{
									OFFSET 0.040636 -0.017977 0.025611
									CHANNELS 3 Zrotation Yrotation Xrotation
									JOINT left_thumb_2
									{
										OFFSET 0.021637 -0.017639 0.011623
										CHANNELS 3 Zrotation Yrotation Xrotation
										JOINT left_thumb_3
										{
											OFFSET 0.024002 -0.008356 0.006548
											CHANNELS 3 Zrotation Yrotation Xrotation
											End Site
											{
												OFFSET 0.000000 0.000000 0.000000
											}
										}
									}
								}
							}
						}
					}
				}
				JOINT right_collar
				{
					OFFSET -0.047695 0.084339 -0.013400
					CHANNELS 3 Zrotation Yrotation Xrotation
					JOINT right_shoulder
					{
						OFFSET -0.102578 0.053524 -0.012669
						CHANNELS 3 Zrotation Yrotation Xrotation
						JOINT right_elbow
						{
							OFFSET -0.271150 -0.036492 -0.026467
							CHANNELS 3 Zrotation Yrotation Xrotation
							JOINT right_wrist
							{
								OFFSET -0.249267 -0.004533 -0.015325
								CHANNELS 3 Zrotation Yrotation Xrotation
								JOINT right_index_1
								{
									OFFSET -0.099881 -0.011783 0.019600
									CHANNELS 3 Zrotation Yrotation Xrotation
									JOINT right_index_2
									{
										OFFSET -0.030148 -0.011154 0.001151
										CHANNELS 3 Zrotation Yrotation Xrotation
										JOINT right_index_3
										{
											OFFSET -0.006505 -0.021577 -0.002432
											CHANNELS 3 Zrotation Yrotation Xrotation
											End Site
											{
												OFFSET 0.000000 0.000000 0.000000
											}
										}
									}
								}
								JOINT right_middle_1
								{
									OFFSET -0.107376 -0.009422 -0.003734
									CHANNELS 3 Zrotation Yrotation Xrotation
									JOINT right_middle_2
									{
										OFFSET -0.026472 -0.015218 -0.004641
										CHANNELS 3 Zrotation Yrotation Xrotation
										JOINT right_middle_3
										{
											OFFSET -0.005022 -0.023347 -0.001911
											CHANNELS 3 Zrotation Yrotation Xrotation
											End Site
											{
												OFFSET 0.000000 0.000000 0.000000
											}
										}
									}
								}
								JOINT right_pinky_1
								{
									OFFSET -0.082027 -0.017634 -0.043503
									CHANNELS 3 Zrotation Yrotation Xrotation
									JOINT right_pinky_2
									{
										OFFSET -0.012123 -0.014448 -0.005374
										CHANNELS 3 Zrotation Yrotation Xrotation
										JOINT right_pinky_3
										{
											OFFSET -0.003798 -0.018852 0.000167
											CHANNELS 3 Zrotation Yrotation Xrotation
											End Site
											{
												OFFSET 0.000000 0.000000 0.000000
											}
										}
									}
								}
								JOINT right_ring_1
								{
									OFFSET -0.095423 -0.012362 -0.027099
									CHANNELS 3 Zrotation Yrotation Xrotation
									JOINT right_ring_2
									{
										OFFSET -0.023561 -0.016057 -0.001895
										CHANNELS 3 Zrotation Yrotation Xrotation
										JOINT right_ring_3
										{
											OFFSET -0.004257 -0.023548 0.000816
											CHANNELS 3 Zrotation Yrotation Xrotation
											End Site
											{
												OFFSET 0.000000 0.000000 0.000000
											}
										}
									}
								}
								JOINT right_thumb_1
								{
									OFFSET -0.038613 -0.021074 0.025861
									CHANNELS 3 Zrotation Yrotation Xrotation
									JOINT right_thumb_2
									{
										OFFSET -0.021636 -0.017639 0.011623
										CHANNELS 3 Zrotation Yrotation Xrotation
										JOINT right_thumb_3
										{
											OFFSET -0.024004 -0.008353 0.006547
											CHANNELS 3 Zrotation Yrotation Xrotation
											End Site
											{
												OFFSET 0.000000 0.000000 0.000000
											}
										}
									}
								}
							}
						}
					}
				}
			}
		}
	}
}
MOTION
Frames: 7
Frame Time: 0.050000
0.000027 0.917570 0.000587 1.457660 -11.548571 -4.795471 6.038733 -1.454772 -24.463185 -4.456858 -0.637256 37.134832 -5.141605 -6.448170 4.750193 0.000000 0.000000 0.000000 -11.321592 1.866228 -22.141356 12.316275 -1.476916 37.933105 -4.276732 -6.776609 -2.696418 0.000000 0.000000 0.000000 0.194102 -1.715068 32.923597 -9.606916 -2.524838 -24.347906 7.778389 3.839593 26.170448 -2.073723 0.500347 -1.025651 0.000000 0.000000 0.000000 2.889956 2.190958 -0.866575 -39.621098 -25.233618 -5.133309 58.697389 -50.412009 -21.537612 13.295221 7.955139 -26.085985 6.236070 -0.681485 -0.215110 15.207130 -7.130408 -35.167649 0.000000 0.000000 0.000000 10.429590 -3.342141 -0.344414 30.754305 -0.127098 0.197910 0.000000 0.000000 0.000000 20.855338 -4.102172 -0.004109 19.342777 1.870144 17.643247 0.000000 0.000000 0.000000 7.818618 -0.947671 -0.432673 29.514370 2.341012 2.315383 0.000000 0.000000 0.000000 25.837941 -4.404667 -17.364354 -27.663088 -1.241899 7.407299 0.000000 0.000000 0.000000 -7.676692 12.786268 6.408563 53.413967 52.585606 12.106973 -113.929161 75.940023 -99.964817 -8.675280 -8.757779 -27.184269 -11.264352 2.080453 -0.384710 -17.340722 1.489537 -14.978638 0.000000 0.000000 0.000000 7.413243 7.856624 -4.397754 -5.088737 2.501393 -14.293356 0.000000 0.000000 0.000000 -11.653769 6.584338 -8.166728 -18.262746 -1.795996 13.445628 0.000000 0.000000 0.000000 11.840452 7.457652 -3.620588 -10.653363 0.970108 -10.729489 0.000000 0.000000 0.000000 -26.523097 1.647423 -15.695764 16.684607 4.697957 2.847859 0.000000 0.000000 0.000000 
0.000027 0.917570 0.000587 0.371368 -11.731749 -4.081894 5.703391 -1.510631 -24.629703 -4.063767 -0.783717 36.603601 -2.817552 -2.196538 4.637746 0.000000 0.000000 0.000000 -11.131605 1.915270 -22.025743 12.048579 -1.354337 37.404001 -2.101336 -1.513911 -3.668366 0.000000 0.000000 0.000000 -0.090969 -1.663000 33.209050 -9.577823 -2.519602 -24.237695 7.610860 3.367558 25.885382 -1.935451 0.465167 -0.996153 0.000000 0.000000 0.000000 3.880079 2.449730 -0.931288 -39.914440 -26.654022 -4.835147 58.197271 -49.289512 -20.602892 13.052181 8.227225 -26.028305 6.078857 -1.139392 -0.331295 14.854891 -6.781975 -34.148632 0.000000 0.000000 0.000000 10.623019 -3.686292 -0.534619 29.342064 0.024316 1.386348 0.000000 0.000000 0.000000 19.912240 -3.705418 0.444457 20.141148 1.686226 17.604964 0.000000 0.000000 0.000000 8.176052 -1.274895 -0.712574 28.848038 2.369803 3.216908 0.000000 0.000000 0.000000 25.721844 -4.830458 -17.521183 -26.508718 -1.265543 6.990991 0.000000 0.000000 0.000000 -8.400046 12.531049 6.332173 52.469533 55.041689 12.511193 -115.488311 71.522985 -96.633749 -5.417815 -10.093521 -31.225918 -11.574884 1.669344 0.003125 -17.774573 1.390327 -15.076218 0.000000 0.000000 0.000000 8.126896 7.460893 -4.249873 -5.774820 2.983152 -15.691491 0.000000 0.000000 0.000000 -9.923270 6.410590 -8.667745 -19.259390 -1.441733 11.458456 0.000000 0.000000 0.000000 12.802488 8.289396 -3.817646 -11.322420 1.010578 -10.696788 0.000000 0.000000 0.000000 -28.732408 1.278702 -15.808489 17.344840 4.125497 3.261979 0.000000 0.000000 0.000000 
0.000027 0.917570 0.000587 1.453535 -11.658430 -4.795810 5.570252 -1.573376 -24.939085 -3.821322 -0.910214 36.496305 -5.559525 -5.311373 7.188854 0.000000 0.000000 0.000000 -11.004972 1.892087 -21.927528 12.000450 -1.345851 36.684750 -4.530537 -8.072958 -1.386807 0.000000 0.000000 0.000000 0.198746 -1.704234 32.458239 -9.988548 -2.208611 -23.570206 7.684616 3.599916 25.407805 -1.797456 0.433802 -0.939817 0.000000 0.000000 0.000000 4.212166 1.724037 -0.565882 -40.018560 -27.109887 -4.808011 58.140344 -49.530297 -20.773422 13.414421 8.819490 -25.802228 6.133981 0.174953 0.031904 16.369593 -7.333502 -36.633105 0.000000 0.000000 0.000000 10.401949 -2.663554 0.107446 30.594215 -0.119536 0.339741 0.000000 0.000000 0.000000 18.502391 -4.038065 -0.883871 22.854021 1.176624 20.233782 0.000000 0.000000 0.000000 7.940592 -0.338276 0.104401 29.201768 2.347923 2.394259 0.000000 0.000000 0.000000 25.720032 -4.221316 -17.163278 -26.589676 -1.570748 6.964908 0.000000 0.000000 0.000000 -8.546624 11.313287 5.804546 52.472813 56.038265 13.060609 -117.430011 68.354007 -95.003446 -3.114842 -10.542079 -33.956311 -11.842338 0.765742 0.479421 -18.726428 1.841859 -18.110799 0.000000 0.000000 0.000000 8.100844 7.416023 -4.247077 -6.430070 3.313947 -16.624560 0.000000 0.000000 0.000000 -8.684190 7.001318 -10.116398 -19.800212 -1.623476 13.033257 0.000000 0.000000 0.000000 13.125608 8.831833 -3.962768 -12.394273 1.098555 -11.511433 0.000000 0.000000 0.000000 -30.843006 1.159648 -16.156272 18.416551 3.588451 3.815775 0.000000 0.000000 0.000000 
0.000027 0.917570 0.000587 1.457660 -11.548571 -4.795471 5.701018 -1.561845 -25.209342 -3.912031 -0.889434 36.219273 -4.538010 -4.229730 6.167174 0.000000 0.000000 0.000000 -10.909582 1.917401 -22.234401 11.687294 -1.257533 36.875163 -4.310762 -8.144012 -0.553104 0.000000 0.000000 0.000000 0.008726 -1.663279 32.361270 -9.849901 -2.446569 -24.324678 7.587136 3.656825 25.842037 -1.880791 0.434227 -0.807805 0.000000 0.000000 0.000000 4.628310 2.152910 -0.727370 -40.143243 -27.308599 -4.797751 56.629374 -50.224399 -20.352901 14.031449 10.521510 -24.845303 5.704856 -0.186829 -0.069514 15.259291 -7.615224 -36.983707 0.000000 0.000000 0.000000 10.269370 -2.830260 -0.008361 30.009610 -0.035638 -0.176750 0.000000 0.000000 0.000000 19.237206 -3.667345 0.369081 21.007604 1.407502 16.821398 0.000000 0.000000 0.000000 8.126099 -0.230324 0.222513 29.168012 2.342642 1.436018 0.000000 0.000000 0.000000 25.245059 -4.442321 -17.052470 -28.241922 -1.505744 7.514509 0.000000 0.000000 0.000000 -9.447171 11.524736 5.870190 52.429300 57.693441 13.787611 -116.778299 65.478952 -90.623823 -2.845458 -11.413897 -37.539673 -12.491769 -0.397592 1.138791 -19.121215 2.212414 -19.812096 0.000000 0.000000 0.000000 8.213195 7.859945 -4.345705 -7.001974 3.356476 -16.848827 0.000000 0.000000 0.000000 -7.959903 7.291648 -10.748862 -20.360623 -1.511548 12.484393 0.000000 0.000000 0.000000 13.789718 9.047201 -3.664015 -13.273657 1.363459 -12.852818 0.000000 0.000000 0.000000 -32.385003 0.384802 -15.417771 18.684577 4.801215 3.569319 0.000000 0.000000 0.000000 
0.000027 0.917570 0.000587 -0.000446 -11.738582 -5.488502 5.832374 -1.489422 -25.243582 -3.942387 -0.851234 35.578381 -2.259612 -0.738644 5.244081 0.000000 0.000000 0.000000 -10.725185 1.943759 -22.072421 11.359937 -1.112393 36.265212 0.390296 -2.613266 4.607467 0.000000 0.000000 0.000000 -0.349204 -1.596630 31.905720 -9.942984 -2.481158 -24.488740 7.952345 4.384359 25.811283 -1.763380 0.337049 -0.181666 0.000000 0.000000 0.000000 5.028431 2.114704 -0.655930 -40.441108 -28.025598 -4.790792 55.492227 -50.348381 -19.936149 13.864180 10.282285 -23.936400 7.646343 0.161484 0.023758 14.134955 -7.675720 -35.953997 0.000000 0.000000 0.000000 12.015873 -2.026671 0.893382 27.717280 0.081344 -2.718380 0.000000 0.000000 0.000000 21.120876 -3.721141 1.298029 18.916349 1.890012 17.203758 0.000000 0.000000 0.000000 9.525533 -0.500826 0.055002 27.817428 2.353893 2.393336 0.000000 0.000000 0.000000 25.400218 -4.306514 -17.253544 -26.913846 -0.958782 7.146804 0.000000 0.000000 0.000000 -9.707381 11.298459 5.729579 52.100313 58.992775 14.428857 -114.747104 62.898759 -85.006804 -4.204690 -11.064378 -39.811780 -13.750473 0.837499 1.035037 -19.062649 2.317512 -19.747152 0.000000 0.000000 0.000000 7.632545 9.331356 -4.887789 -8.043285 3.665081 -18.805585 0.000000 0.000000 0.000000 -7.444293 8.170468 -12.096532 -20.784941 -1.492883 12.659160 0.000000 0.000000 0.000000 13.609632 11.014657 -4.533408 -13.962138 1.088916 -12.389362 0.000000 0.000000 0.000000 -34.597016 0.823459 -15.959877 18.971430 4.009361 3.962209 0.000000 0.000000 0.000000 
0.000027 0.917570 0.000587 0.044533 -11.327253 -5.670429 5.463381 -1.608956 -25.089708 -3.851065 -0.944060 35.460492 -1.805232 -1.806119 2.455760 0.000000 0.000000 0.000000 -10.750771 1.873406 -21.652458 11.154773 -1.096881 36.220542 0.360076 -2.320777 4.123921 0.000000 0.000000 0.000000 -0.381867 -1.605414 31.692847 -9.948885 -2.409532 -24.301535 7.555544 3.552484 26.116365 -1.737010 0.411353 -0.828394 0.000000 0.000000 0.000000 5.240196 2.829848 -0.985015 -40.440448 -28.183030 -4.671120 52.992313 -51.618047 -19.142721 15.540724 11.583599 -23.270113 5.989762 -0.337071 -0.127292 17.289135 -6.317006 -35.288219 0.000000 0.000000 0.000000 12.155097 -3.066991 0.228988 28.728838 0.044934 0.141177 0.000000 0.000000 0.000000 21.007992 -3.669280 1.491231 18.981474 1.861442 17.267287 0.000000 0.000000 0.000000 8.840945 -0.658595 -0.086357 28.530705 2.342363 2.145706 0.000000 0.000000 0.000000 24.902188 -4.976912 -17.349254 -26.975977 -0.849214 7.179718 0.000000 0.000000 0.000000 -10.565571 12.067351 6.062158 51.322843 62.240696 15.210263 -109.169529 60.689249 -76.247154 -5.274726 -11.990839 -42.521637 -15.250199 0.142150 1.726207 -18.546458 3.130261 -21.381419 0.000000 0.000000 0.000000 7.274666 9.791588 -4.978026 -7.651772 3.945961 -19.159502 0.000000 0.000000 0.000000 -6.060097 8.903679 -12.934519 -21.861412 -1.253579 12.313777 0.000000 0.000000 0.000000 14.134014 12.002550 -4.586597 -16.176198 1.006959 -13.748917 0.000000 0.000000 0.000000 -36.827636 0.410858 -15.585967 19.884968 3.775028 4.405511 0.000000 0.000000 0.000000 
0.000027 0.917570 0.000587 0.044533 -11.327253 -5.670429 5.463381 -1.608956 -25.089708 -3.851065 -0.944060 35.460492 -1.862982 -1.924992 2.445578 0.000000 0.000000 0.000000 -10.750771 1.873406 -21.652458 11.154773 -1.096881 36.220542 0.360076 -2.320777 4.123921 0.000000 0.000000 0.000000 -0.381867 -1.605414 31.692847 -9.948885 -2.409532 -24.301535 7.555544 3.552484 26.116365 -1.737010 0.411353 -0.828394 0.000000 0.000000 0.000000 5.240196 2.829848 -0.985015 -40.440448 -28.183030 -4.671120 52.992313 -51.618047 -19.142721 15.540724 11.583599 -23.270113 5.989762 -0.337071 -0.127292 17.289135 -6.317006 -35.288219 0.000000 0.000000 0.000000 12.155097 -3.066991 0.228988 28.728838 0.044934 0.141177 0.000000 0.000000 0.000000 21.007992 -3.669280 1.491231 18.981474 1.861442 17.267287 0.000000 0.000000 0.000000 8.840945 -0.658595 -0.086357 28.530705 2.342363 2.145706 0.000000 0.000000 0.000000 24.902188 -4.976912 -17.349254 -26.975977 -0.849214 7.179718 0.000000 0.000000 0.000000 -10.565571 12.067351 6.062158 51.322843 62.240696 15.210263 -109.169529 60.689249 -76.247154 -5.274726 -11.990839 -42.521637 -15.250199 0.142150 1.726207 -18.546458 3.130261 -21.381419 0.000000 0.000000 0.000000 7.274666 9.791588 -4.978026 -7.651772 3.945961 -19.159502 0.000000 0.000000 0.000000 -6.060097 8.903679 -12.934519 -21.861412 -1.253579 12.313777 0.000000 0.000000 0.000000 14.134014 12.002550 -4.586597 -16.176198 1.006959 -13.748917 0.000000 0.000000 0.000000 -36.827636 0.410858 -15.585967 19.884968 3.775028 4.405511 0.000000 0.000000 0.000000 
